<svg width="25" height="25" viewBox="0 0 25 25" fill="none" xmlns="http://www.w3.org/2000/svg">
<path d="M3.64581 4.6875H5.32929C6.02502 4.6875 6.37288 4.6875 6.63476 4.87626C6.89665 5.06502 7.00665 5.39503 7.22666 6.05504L7.81248 7.8125" stroke="#222222" stroke-linecap="round"/>
<path d="M18.2291 18.2292H8.38634C8.18231 18.2292 8.0803 18.2292 8.00329 18.2171C7.45358 18.1309 7.07997 17.6125 7.17201 17.0638C7.18491 16.9869 7.21717 16.8901 7.28169 16.6966V16.6966C7.35331 16.4817 7.38913 16.3742 7.43145 16.2806C7.72466 15.6317 8.34073 15.1877 9.04901 15.1147C9.15123 15.1042 9.26449 15.1042 9.49099 15.1042H15.1041" stroke="#222222" stroke-linecap="round" stroke-linejoin="round"/>
<path d="M14.8662 15.1042H11.4918C10.2125 15.1042 9.57294 15.1042 9.072 14.7738C8.57106 14.4435 8.3191 13.8556 7.81519 12.6798L7.52137 11.9943C6.71187 10.1054 6.30713 9.16103 6.75173 8.48676C7.19634 7.8125 8.22383 7.8125 10.2788 7.8125H16.1846C18.4837 7.8125 19.6332 7.8125 20.0668 8.55961C20.5003 9.30672 19.93 10.3048 18.7894 12.3009L18.3392 13.0887C17.7773 14.0721 17.4963 14.5638 17.0307 14.834C16.5652 15.1042 15.9988 15.1042 14.8662 15.1042Z" stroke="#222222" stroke-linecap="round"/>
<circle cx="17.7084" cy="20.8334" r="1.04167" fill="#222222"/>
<circle cx="9.37498" cy="20.8334" r="1.04167" fill="#222222"/>
</svg>
