<svg width="25" height="25" viewBox="0 0 25 25" fill="none" xmlns="http://www.w3.org/2000/svg">
<path d="M12.5 14.5833L12.1465 14.9369L12.5 15.2904L12.8536 14.9369L12.5 14.5833ZM13 5.20831C13 4.93217 12.7762 4.70831 12.5 4.70831C12.2239 4.70831 12 4.93217 12 5.20831L13 5.20831ZM6.93813 9.72853L12.1465 14.9369L12.8536 14.2298L7.64524 9.02143L6.93813 9.72853ZM12.8536 14.9369L18.0619 9.72853L17.3548 9.02143L12.1465 14.2298L12.8536 14.9369ZM13 14.5833L13 5.20831L12 5.20831L12 14.5833L13 14.5833Z" fill="#222222"/>
<path d="M5.20831 16.6667L5.20831 17.7084C5.20831 18.8589 6.14105 19.7917 7.29165 19.7917L17.7083 19.7917C18.8589 19.7917 19.7916 18.8589 19.7916 17.7084V16.6667" stroke="#222222"/>
</svg>
